<?xml version="1.0" standalone="no"?>
<!DOCTYPE svg PUBLIC "-//W3C//DTD SVG 20010904//EN"
 "http://www.w3.org/TR/2001/REC-SVG-20010904/DTD/svg10.dtd">
<svg version="1.0" xmlns="http://www.w3.org/2000/svg"
 width="1200.000000pt" height="1200.000000pt" viewBox="0 0 1200.000000 1200.000000"
 preserveAspectRatio="xMidYMid meet">
<metadata>
Created by potrace 1.14, written by Peter Selinger 2001-2017
</metadata>
<g transform="translate(0.000000,1200.000000) scale(0.100000,-0.100000)"
fill="#000000" stroke="none">
<path d="M0 6000 l0 -6000 6000 0 6000 0 0 6000 0 6000 -6000 0 -6000 0 0
-6000z m10713 5650 c163 -46 376 -189 547 -367 152 -157 256 -319 306 -473 17
-52 18 -292 25 -4705 8 -4624 8 -4650 -12 -4725 -83 -313 -273 -572 -536 -732
-124 -75 -200 -110 -357 -164 l-100 -34 -1991 0 c-1535 0 -1994 3 -2003 12 -9
9 -12 292 -12 1212 0 1300 2 1255 -54 1351 -33 55 -45 151 -23 179 13 18 18
18 75 6 110 -23 129 8 134 225 2 72 -1 161 -6 199 -7 59 -13 74 -38 98 l-30
27 -60 -30 c-115 -58 -218 -181 -218 -261 0 -18 13 -42 36 -68 26 -28 34 -45
29 -59 -9 -30 -58 -67 -112 -86 -140 -49 -191 -71 -220 -93 l-33 -24 0 -1348
0 -1347 -922 -6 c-1287 -10 -3548 -8 -3698 2 -109 8 -136 13 -214 45 -174 70
-326 174 -487 335 -165 165 -270 322 -337 502 l-27 74 0 4670 0 4670 31 85
c38 103 63 154 120 240 195 295 546 535 870 594 68 12 750 14 4664 15 4518 1
4586 1 4653 -19z"/>
<path d="M1760 11450 c-323 -7 -363 -14 -534 -94 -129 -60 -225 -126 -334
-230 -141 -135 -214 -247 -264 -406 l-23 -75 0 -4575 0 -4575 22 -67 c98 -297
371 -608 646 -733 126 -58 4 -55 2388 -53 l2192 3 -3 665 c-1 366 -6 855 -9
1086 l-6 422 -100 -75 c-267 -201 -367 -293 -870 -798 -424 -425 -459 -455
-535 -455 -39 0 -84 44 -100 98 -22 74 -39 271 -40 440 0 94 -3 172 -7 172 -7
0 -40 -20 -438 -267 -474 -294 -708 -422 -812 -443 -205 -43 -215 108 -36 555
51 127 191 438 264 585 85 173 83 167 51 175 -36 9 -188 -2 -347 -26 -132 -19
-291 -56 -445 -103 -223 -68 -309 -89 -363 -90 -70 -1 -87 15 -87 81 l0 43
-122 0 c-117 0 -198 12 -198 29 0 4 14 29 32 56 45 67 170 190 305 297 102 82
114 95 133 146 l21 56 -28 21 c-15 11 -38 29 -51 40 l-24 20 119 106 c235 210
416 361 586 488 55 42 97 81 97 90 -1 9 -11 34 -23 56 l-22 40 -215 0 c-209 0
-216 1 -253 24 -37 23 -67 66 -67 96 0 19 -6 19 -197 -5 -212 -26 -559 -60
-621 -60 -28 0 -53 4 -56 9 -4 5 -12 45 -20 88 -13 77 -44 154 -67 169 -6 3
-66 1 -133 -6 -123 -12 -176 -6 -176 21 0 22 75 84 160 131 l85 48 -75 0 c-81
0 -120 16 -120 49 0 52 171 176 540 391 311 181 394 232 404 249 10 15 -333
120 -539 166 -109 25 -329 85 -412 114 -112 39 -172 75 -189 116 -25 62 11
115 131 193 70 45 299 159 365 181 91 30 92 23 -15 156 -195 244 -295 355
-394 440 -39 33 -71 67 -71 76 0 21 56 72 109 99 94 47 274 96 561 151 85 16
205 39 265 51 61 11 114 24 119 29 12 11 -99 156 -239 314 -275 309 -340 418
-352 591 -8 111 -2 131 45 143 61 18 87 13 210 -35 153 -61 292 -102 371 -110
l64 -7 -7 44 c-4 24 -21 75 -38 112 -34 73 -34 85 3 174 l13 32 -127 125
c-119 118 -187 203 -202 253 -4 17 0 26 20 39 25 16 32 16 120 0 52 -10 199
-54 327 -98 552 -189 641 -219 744 -248 156 -44 384 -85 384 -70 0 4 -32 64
-72 132 -39 67 -103 179 -143 248 -40 69 -103 179 -142 245 -65 112 -204 353
-243 420 -10 17 -33 57 -53 91 -20 33 -37 66 -39 73 -2 10 29 12 139 11 l142
-1 6 38 c3 21 12 67 20 103 8 36 15 74 15 85 0 49 16 50 77 3 61 -46 79 -60
598 -458 330 -253 457 -350 598 -457 45 -35 85 -63 88 -63 4 0 -17 93 -46 208
-148 585 -200 969 -165 1215 16 111 66 187 122 187 64 0 200 -93 338 -230 79
-79 211 -236 254 -304 10 -15 21 -24 26 -20 7 9 47 224 74 404 59 389 120 584
210 675 49 49 100 73 119 56 31 -25 129 -183 176 -281 58 -122 115 -288 142
-415 22 -100 30 -114 103 -198 l51 -58 18 43 c95 221 146 447 172 758 15 181
49 358 74 383 8 8 41 -18 127 -103 170 -169 214 -230 285 -400 52 -125 174
-363 247 -482 88 -146 135 -218 143 -218 12 0 20 133 29 513 9 366 20 509 41
550 15 27 43 21 136 -28 47 -25 95 -45 107 -45 33 0 106 52 156 111 39 47 93
89 113 89 35 0 48 -191 27 -397 -5 -54 -17 -174 -25 -268 -9 -93 -22 -205 -29
-247 l-13 -77 101 -253 c56 -139 105 -259 109 -266 12 -18 111 54 207 149 109
107 227 272 341 473 l44 78 80 -7 c89 -8 219 -45 280 -81 59 -34 111 -92 140
-157 l27 -57 -33 -98 c-153 -463 -402 -807 -795 -1099 -51 -37 -100 -73 -109
-78 -17 -10 -17 -13 -1 -42 18 -35 4 -34 174 -17 l52 5 187 212 c103 117 202
228 219 247 17 19 57 64 88 99 l56 64 0 72 c0 40 3 86 6 102 l6 30 89 -5 89
-5 72 50 c40 28 123 85 183 126 61 42 163 112 228 157 114 78 118 80 126 58 5
-13 27 -92 51 -177 l42 -153 -30 -92 c-126 -383 -203 -628 -201 -631 2 -2 50
-9 106 -15 116 -14 86 -23 275 92 178 108 300 142 430 120 86 -15 162 -56 237
-128 l54 -53 -24 -38 c-64 -106 -164 -227 -439 -532 -150 -167 -303 -352 -296
-358 3 -4 54 4 113 16 296 62 473 84 473 60 0 -28 -56 -56 -440 -219 -25 -10
-79 -33 -120 -50 -41 -17 -95 -40 -120 -50 -25 -10 -79 -33 -120 -51 -41 -17
-99 -42 -128 -55 -29 -13 -55 -24 -58 -24 -11 0 -286 -136 -376 -186 -94 -53
-98 -56 -151 -142 -72 -114 -129 -216 -216 -387 -78 -151 -231 -486 -231 -504
0 -7 30 -11 89 -11 68 0 100 5 137 21 481 210 851 473 1352 964 74 71 139 129
145 128 7 -1 37 -8 67 -16 l55 -16 50 32 c202 127 315 224 388 331 52 76 13
137 -136 212 -63 32 -87 49 -87 63 0 12 9 21 24 25 40 10 289 46 318 46 35 0
43 -25 43 -140 -1 -167 -52 -260 -249 -450 -72 -69 -172 -166 -224 -216 l-94
-90 149 -23 c81 -13 173 -32 203 -44 45 -17 86 -22 230 -27 155 -5 180 -8 218
-28 23 -12 43 -28 43 -35 5 -52 -18 -95 -130 -245 -102 -136 -146 -201 -140
-205 2 -2 78 -27 169 -56 385 -123 476 -160 466 -187 -12 -32 -212 -289 -285
-367 -187 -198 -397 -328 -718 -444 -40 -15 -73 -29 -73 -32 1 -9 259 -155
462 -262 208 -109 268 -155 268 -203 0 -58 -92 -126 -350 -255 -69 -35 -129
-67 -133 -71 -8 -7 70 -87 228 -230 342 -311 569 -531 622 -603 45 -62 41 -78
-45 -164 -113 -115 -301 -190 -536 -212 -60 -6 -320 -11 -578 -11 -257 0 -468
-4 -468 -8 0 -4 36 -57 80 -117 44 -61 134 -184 200 -275 66 -91 174 -239 240
-330 67 -91 132 -181 145 -200 13 -19 60 -84 105 -145 44 -60 79 -117 78 -125
-2 -10 -21 -17 -58 -22 -57 -8 -406 5 -610 22 -114 10 -260 13 -260 7 0 -22
54 -148 120 -279 91 -182 130 -283 130 -340 0 -46 -9 -47 -120 -18 -110 29
-155 27 -191 -9 -31 -32 -37 -69 -20 -128 7 -23 6 -33 -2 -36 -20 -7 -103 30
-305 134 -106 55 -225 115 -266 133 l-73 34 -87 -172 c-89 -176 -135 -246
-163 -246 -9 0 -50 19 -92 43 -97 56 -156 80 -261 108 l-85 22 -170 161 c-93
88 -172 163 -175 166 -3 3 -79 75 -170 160 -91 85 -205 193 -255 241 -49 47
-180 171 -290 274 l-200 189 -3 -1115 c-1 -613 0 -1120 3 -1126 7 -20 3752
-18 3815 1 345 108 608 352 744 690 l36 89 0 4601 c0 4051 -2 4609 -15 4659
-30 115 -161 310 -310 463 -135 138 -250 220 -373 267 l-57 22 -4285 0 c-2357
1 -4413 -2 -4570 -5z"/>
<path d="M7138 10828 c-14 -23 -140 -286 -180 -376 -20 -47 -33 -78 -101 -244
-76 -185 -152 -467 -170 -635 l-6 -53 52 0 c34 0 63 7 85 20 18 11 34 20 36
20 2 0 14 -17 26 -37 42 -70 71 -174 82 -293 6 -63 12 -121 14 -127 5 -20 49
-15 68 6 17 19 18 57 11 643 l-7 623 27 60 c30 66 39 92 91 269 19 65 33 125
30 132 -8 22 -42 16 -58 -8z"/>
<path d="M6013 10788 c-13 -17 -22 -66 -88 -473 -30 -187 -64 -392 -75 -455
-11 -63 -26 -155 -34 -205 l-14 -90 225 -455 c246 -494 270 -540 293 -540 28
0 139 81 184 133 69 82 122 203 146 336 13 72 -1 247 -26 311 -32 86 -88 325
-149 640 -67 344 -114 509 -147 511 -7 0 -51 0 -98 -1 -66 0 -92 4 -115 18
-28 17 -30 22 -31 95 -1 42 -10 101 -18 131 -16 55 -33 69 -53 44z"/>
<path d="M5236 10433 c-2 -2 3 -27 11 -56 38 -133 64 -207 94 -260 l32 -59 23
24 c23 23 24 25 10 68 -28 90 -57 166 -83 222 -21 46 -31 57 -54 60 -16 3 -31
3 -33 1z"/>
<path d="M5059 10368 c-51 -70 -87 -151 -114 -254 -22 -84 -25 -117 -25 -263
l0 -167 61 -99 c109 -177 295 -462 368 -563 106 -146 215 -272 237 -272 35 0
28 76 -23 265 -20 72 -46 168 -59 215 -24 90 -80 271 -143 460 -44 131 -123
376 -172 530 -45 143 -65 190 -84 190 -8 0 -29 -19 -46 -42z"/>
<path d="M8205 10164 c-42 -51 -39 -66 8 -41 58 32 69 44 62 66 -10 32 -29 25
-70 -25z"/>
<path d="M7136 10163 c-33 -196 -27 -623 8 -623 38 0 99 120 118 229 19 113
-22 317 -81 400 -29 40 -37 39 -45 -6z"/>
<path d="M4392 10168 c-7 -7 -12 -15 -12 -20 0 -22 662 -1357 765 -1541 94
-170 127 -212 169 -223 30 -7 85 14 131 50 l29 23 -19 28 c-11 15 -28 39 -37
54 -10 15 -44 37 -80 52 l-62 27 -68 188 c-38 104 -75 207 -83 229 -7 22 -27
76 -43 120 -16 44 -49 134 -73 200 -35 100 -53 133 -103 196 -34 42 -106 134
-161 204 -55 70 -129 164 -165 208 -36 45 -85 108 -108 139 -56 73 -65 81 -80
66z"/>
<path d="M8343 10051 c-85 -33 -185 -88 -320 -173 -54 -34 -155 -96 -225 -138
l-126 -77 -5 -254 c-3 -140 -2 -261 1 -270 14 -32 586 622 761 869 l51 72 -33
0 c-17 -1 -64 -13 -104 -29z"/>
<path d="M4210 10025 c-10 -12 -8 -34 10 -113 24 -103 44 -152 62 -152 8 0 9
35 4 126 -4 69 -10 132 -13 140 -7 18 -47 18 -63 -1z"/>
<path d="M9048 9691 c-61 -48 -165 -233 -278 -491 l-77 -175 -57 2 c-57 2 -86
14 -86 37 0 6 42 55 94 108 108 112 150 184 149 258 -1 54 -17 90 -39 90 -9 0
-84 -67 -168 -148 -83 -81 -205 -190 -269 -241 -64 -52 -117 -97 -117 -100 0
-4 6 -16 14 -27 12 -16 31 -20 123 -25 174 -10 196 -37 81 -95 -307 -154 -603
-361 -790 -551 l-78 -78 60 -84 c71 -99 87 -148 100 -303 5 -64 17 -136 26
-160 26 -73 27 -77 9 -94 -44 -45 -159 -188 -210 -264 l-58 -85 33 -6 c17 -4
64 -3 103 2 l72 9 108 108 c102 100 217 239 217 260 0 5 -28 15 -61 21 -34 7
-73 17 -88 22 l-25 10 29 24 c17 13 48 39 70 59 22 20 90 66 150 103 235 141
406 319 545 566 17 31 35 57 39 57 5 0 16 -9 27 -21 30 -33 89 -59 135 -59 23
0 120 20 217 45 96 25 193 45 215 45 45 0 76 16 242 126 201 133 305 240 305
313 0 29 -6 34 -64 52 -36 11 -59 -1 -195 -101 -59 -42 -137 -96 -175 -120
l-70 -44 -150 3 c-102 2 -187 -3 -260 -14 -60 -8 -110 -14 -113 -12 -2 3 26
67 62 143 141 294 221 490 275 673 28 95 28 95 10 132 -16 30 -37 49 -54 49
-2 0 -14 -9 -28 -19z"/>
<path d="M4492 9616 c-53 -18 -57 -34 -57 -211 l0 -160 97 -270 c53 -148 108
-315 123 -370 15 -55 38 -143 52 -195 46 -174 43 -168 143 -234 50 -32 92 -57
94 -55 27 31 186 261 186 270 0 15 -35 87 -441 917 -77 156 -139 287 -139 292
0 20 -26 27 -58 16z"/>
<path d="M5600 9467 c-13 -7 -31 -24 -39 -39 -14 -25 -13 -32 7 -90 25 -68 86
-178 127 -226 36 -42 75 -49 130 -22 55 26 75 62 75 129 0 67 -13 92 -64 123
-24 14 -63 51 -87 81 -40 51 -48 56 -84 56 -22 1 -51 -5 -65 -12z"/>
<path d="M2891 9439 c-6 -17 -11 -59 -11 -93 l0 -61 189 -280 c282 -418 343
-504 453 -643 95 -120 372 -412 391 -412 4 0 19 24 33 54 23 51 24 57 10 90
-10 23 -11 36 -4 36 16 0 299 -149 423 -223 72 -42 113 -62 120 -56 6 6 10 54
9 107 0 118 -26 191 -82 237 -20 17 -80 68 -132 114 -246 217 -861 756 -920
806 -26 22 -100 87 -165 145 -188 168 -227 198 -266 205 -34 6 -37 5 -48 -26z"/>
<path d="M7465 9397 c-19 -15 -19 -16 9 -56 l29 -41 -7 -164 c-8 -194 -4 -218
33 -214 22 3 27 10 33 43 12 72 9 388 -5 415 -15 30 -62 38 -92 17z"/>
<path d="M3536 9138 c92 -97 186 -179 349 -305 83 -64 171 -134 197 -155 27
-22 52 -36 58 -33 14 9 12 45 -6 98 -14 43 -26 53 -190 169 -96 68 -227 160
-291 206 -83 59 -125 82 -146 82 l-30 0 59 -62z"/>
<path d="M7224 9128 c-159 -166 -254 -284 -254 -316 0 -11 7 -25 16 -32 13
-11 23 -10 59 8 44 21 64 44 248 289 32 43 56 84 55 93 -2 9 -16 16 -33 18
-25 2 -39 -7 -91 -60z"/>
<path d="M4351 9137 c-14 -18 7 -119 35 -166 18 -30 49 -49 62 -37 3 4 6 30 6
60 1 42 -5 63 -29 102 -33 52 -54 64 -74 41z"/>
<path d="M6806 8830 c-23 -58 -20 -87 14 -130 18 -23 30 -50 30 -68 0 -34 15
-50 24 -26 3 9 6 72 6 140 l0 124 -29 0 c-24 0 -31 -6 -45 -40z"/>
<path d="M5961 8835 c-36 -31 -38 -44 -12 -99 92 -197 161 -398 216 -633 24
-102 86 -427 100 -528 6 -41 9 -46 17 -31 18 32 14 463 -6 591 -41 274 -201
714 -262 723 -12 2 -35 -9 -53 -23z"/>
<path d="M7249 8802 c-36 -31 -112 -97 -170 -146 l-105 -88 9 -72 c8 -68 3
-218 -9 -249 -3 -8 -15 -18 -27 -21 -34 -8 -108 -76 -123 -113 -13 -30 -8 -55
77 -390 49 -196 94 -363 98 -370 5 -9 19 14 40 64 19 43 42 96 52 118 9 22 38
87 62 145 25 58 61 143 82 190 20 47 54 126 75 175 21 50 61 142 89 205 78
181 75 162 42 235 -35 76 -76 215 -92 308 -6 38 -16 67 -23 67 -6 -1 -41 -27
-77 -58z"/>
<path d="M5719 8798 c-52 -103 -131 -438 -184 -788 -35 -231 -76 -513 -96
-662 l-20 -158 27 -36 c49 -63 345 -318 491 -422 l31 -22 25 42 c77 135 119
233 147 345 21 87 22 100 12 235 -6 79 -19 184 -30 233 -11 50 -31 144 -45
210 -81 374 -152 634 -232 849 -32 85 -92 216 -99 216 -3 0 -15 -19 -27 -42z"/>
<path d="M6569 8637 c-68 -57 -152 -146 -196 -210 l-27 -39 18 -67 c23 -84 34
-141 42 -216 10 -91 14 -96 71 -79 25 8 67 26 92 41 59 34 180 124 207 155 27
29 35 111 24 223 -6 66 -14 90 -44 140 -40 67 -78 105 -105 105 -9 0 -46 -24
-82 -53z"/>
<path d="M9497 8514 c-21 -14 -66 -35 -100 -47 -127 -42 -375 -180 -524 -289
-50 -36 -57 -38 -140 -42 -48 -3 -103 -8 -122 -12 -66 -14 -236 -199 -410
-446 l-44 -62 35 -31 c20 -17 59 -39 87 -49 44 -16 58 -17 99 -6 26 6 68 23
94 37 41 23 53 36 85 102 77 158 195 299 306 364 39 23 64 29 173 38 126 11
128 11 181 51 101 74 193 159 274 251 71 82 80 96 77 127 -4 44 -22 48 -71 14z"/>
<path d="M2348 8468 c9 -35 91 -110 152 -139 44 -22 80 -29 180 -38 228 -19
245 -19 248 5 3 24 -42 55 -138 92 -112 45 -346 102 -415 102 -29 0 -32 -3
-27 -22z"/>
<path d="M2113 8444 c-9 -25 5 -222 26 -346 33 -195 33 -198 16 -198 -18 0
-438 65 -514 80 -94 18 -94 18 -86 -42 7 -59 39 -98 79 -98 17 0 29 -12 47
-46 l24 -45 225 6 c292 9 560 21 565 27 3 2 10 51 16 109 15 153 13 149 106
149 43 0 83 -4 89 -8 6 -4 86 -107 178 -230 297 -394 472 -540 691 -574 74
-11 208 3 221 24 3 5 3 38 -1 74 l-7 64 -88 60 c-100 69 -140 118 -140 173 0
20 5 37 10 37 6 0 33 -11 60 -25 78 -40 105 -31 117 37 5 31 1 38 -36 70 -23
19 -41 37 -41 40 0 3 18 24 40 46 42 41 50 71 26 92 -8 6 -52 20 -98 29 -206
45 -1206 304 -1228 318 -14 9 -80 56 -148 105 -67 48 -127 88 -132 88 -6 0
-13 -7 -17 -16z"/>
<path d="M4566 8363 c-3 -3 -6 -67 -6 -142 0 -130 2 -140 34 -226 78 -208 111
-287 174 -413 68 -139 109 -188 179 -218 35 -15 101 -18 120 -6 18 12 41 72
49 129 7 58 -4 85 -70 167 -62 75 -357 552 -366 590 -11 51 -37 91 -67 106
-40 20 -40 20 -47 13z"/>
<path d="M5217 8112 c-8 -9 -20 -44 -26 -77 -6 -33 -23 -100 -37 -150 -14 -49
-28 -100 -31 -112 -4 -18 11 -38 77 -103 107 -107 119 -107 175 5 38 78 39 83
42 200 l3 120 -81 60 c-108 79 -104 77 -122 57z"/>
<path d="M7420 7965 l-125 -125 0 -105 c0 -132 3 -135 105 -126 73 6 78 8 162
71 l86 65 7 60 c9 80 -10 180 -42 228 -22 32 -51 57 -65 57 -2 0 -59 -56 -128
-125z"/>
<path d="M6630 8007 c-145 -86 -241 -208 -265 -339 -7 -36 16 -140 36 -164 5
-6 18 -54 30 -105 30 -140 84 -303 136 -414 13 -27 12 -41 -11 -143 -13 -63
-26 -116 -29 -118 -8 -9 -56 15 -65 33 -6 10 -20 63 -31 118 -38 177 -36 172
-94 205 -29 16 -57 30 -62 30 -15 0 -99 -161 -131 -250 -63 -175 -141 -550
-130 -624 8 -51 26 -71 57 -61 34 11 130 115 235 254 l96 128 86 27 c107 35
210 87 263 135 l40 36 16 210 c13 179 14 242 4 428 -17 303 -27 383 -56 463
-28 74 -77 174 -85 173 -3 0 -21 -10 -40 -22z"/>
<path d="M8842 7843 c-18 -7 -68 -83 -76 -116 -6 -26 -5 -28 16 -22 13 4 36
14 51 22 15 8 51 17 80 20 67 7 87 18 87 47 0 38 -30 56 -91 55 -30 0 -60 -3
-67 -6z"/>
<path d="M4218 7800 c-54 -37 -70 -76 -44 -115 33 -51 494 -503 548 -538 74
-48 113 -57 123 -28 23 74 -71 224 -336 532 -143 167 -146 170 -197 175 -41 4
-53 1 -94 -26z"/>
<path d="M3915 7624 c-22 -14 -60 -34 -85 -45 l-45 -21 31 -26 c85 -72 276
-213 335 -245 61 -34 107 -46 122 -31 13 13 -28 69 -164 227 -78 89 -144 163
-148 164 -3 1 -24 -9 -46 -23z"/>
<path d="M2061 7602 c-17 -12 -3 -59 47 -156 38 -73 131 -174 167 -181 57 -11
677 -37 748 -30 189 16 204 65 42 140 -158 74 -461 164 -690 205 -138 25 -294
36 -314 22z"/>
<path d="M9581 7299 c-158 -121 -347 -278 -531 -439 -92 -80 -212 -183 -268
-230 -55 -47 -101 -88 -101 -92 -1 -5 36 -8 82 -8 l83 0 100 83 c218 183 620
589 743 750 26 33 -5 15 -108 -64z"/>
<path d="M7879 7293 c-385 -232 -724 -480 -1022 -747 -42 -38 -77 -75 -77 -81
0 -7 9 -20 19 -29 19 -17 25 -17 143 13 68 16 188 46 268 66 230 57 334 131
405 290 20 44 41 91 48 105 18 38 152 169 242 236 44 32 99 78 123 101 36 34
43 46 37 65 -18 57 -69 52 -186 -19z"/>
<path d="M8188 7273 c-119 -115 -224 -255 -314 -418 -84 -152 -99 -191 -97
-256 1 -58 18 -129 31 -129 4 0 29 8 55 17 45 16 50 22 106 123 124 222 202
388 268 570 19 52 41 105 49 117 20 31 18 43 -7 43 -12 0 -50 -28 -91 -67z"/>
<path d="M7205 7236 c-108 -49 -131 -61 -170 -85 -59 -38 -96 -69 -87 -75 4
-3 37 -10 73 -17 55 -10 73 -9 121 5 49 14 56 19 62 47 6 31 67 101 96 111 13
4 13 7 1 21 -18 22 -35 21 -96 -7z"/>
<path d="M5020 7135 c0 -41 6 -53 53 -109 50 -59 54 -67 60 -130 4 -37 9 -71
12 -76 7 -12 142 -13 149 -2 14 23 6 153 -13 216 -11 38 -23 71 -25 73 -10 11
-193 73 -213 73 -21 0 -23 -5 -23 -45z"/>
<path d="M9995 7155 c-248 -33 -275 -40 -402 -105 -124 -64 -228 -139 -319
-228 -93 -93 -226 -275 -207 -285 4 -2 53 2 108 9 104 14 231 50 370 104 127
50 204 72 284 79 51 4 76 11 82 21 4 8 23 50 43 92 47 104 84 157 180 256 56
58 74 82 60 81 -10 -1 -100 -11 -199 -24z"/>
<path d="M4310 7078 c0 -80 5 -85 114 -137 152 -72 173 -78 192 -60 14 14 13
19 -11 47 -30 35 -162 126 -242 166 l-53 26 0 -42z"/>
<path d="M2558 7100 c-83 -13 -138 -45 -138 -81 0 -20 58 -69 83 -69 8 0 24
11 35 25 l20 25 273 6 c246 6 455 1 898 -23 l123 -6 -17 32 c-30 60 -65 67
-390 81 -379 16 -815 21 -887 10z"/>
<path d="M3932 7020 c2 -5 43 -57 92 -115 l89 -105 77 0 c63 0 82 4 104 21 14
11 26 29 26 39 0 10 -29 43 -63 74 -47 41 -80 61 -128 76 -67 21 -203 28 -197
10z"/>
<path d="M1915 7010 c-42 -4 -87 -16 -111 -29 -49 -26 -190 -65 -294 -81 -140
-22 -179 -38 -242 -98 -88 -84 -98 -160 -30 -244 62 -78 88 -92 301 -162 112
-36 206 -64 208 -62 11 11 -12 26 -94 61 -49 20 -106 45 -128 55 -22 10 -69
30 -105 45 -81 35 -89 43 -101 93 -14 66 5 140 48 184 78 80 186 98 606 98
237 0 247 1 247 19 0 26 -56 80 -105 101 -51 22 -112 28 -200 20z"/>
<path d="M3078 6873 c-76 -2 -138 -7 -138 -12 0 -4 62 -46 138 -93 75 -47 243
-150 372 -230 275 -170 479 -276 491 -257 4 8 11 43 15 79 34 293 -61 454
-292 500 -63 13 -358 19 -586 13z"/>
<path d="M2677 6864 c-16 -16 -5 -45 26 -73 17 -16 78 -63 135 -105 236 -176
526 -363 954 -618 42 -25 75 -38 100 -38 44 0 48 5 37 46 -8 27 -45 55 -271
205 -145 95 -384 254 -533 352 -148 99 -292 190 -320 203 -57 26 -117 39 -128
28z"/>
<path d="M5463 6802 c-26 -21 -53 -84 -53 -126 0 -53 66 -131 165 -196 53 -35
69 -40 142 -46 71 -6 83 -5 89 9 11 31 -18 91 -67 135 -27 24 -78 85 -113 136
-36 52 -73 96 -81 100 -28 11 -59 6 -82 -12z"/>
<path d="M4430 6769 c-186 -31 -280 -75 -280 -130 0 -22 6 -32 26 -39 15 -6
190 -10 425 -10 316 0 400 3 397 12 -10 30 -278 141 -433 180 -11 3 -72 -3
-135 -13z"/>
<path d="M1865 6724 c-80 -17 -108 -30 -135 -61 -17 -18 -30 -42 -30 -52 0
-32 244 -219 340 -261 52 -24 67 -25 287 -28 141 -2 239 0 250 6 19 11 63 129
63 171 0 47 -70 147 -130 184 -41 26 -243 47 -443 46 -100 -1 -191 -3 -202 -5z"/>
<path d="M10235 6714 c-66 -10 -230 -56 -301 -85 -91 -36 -158 -69 -151 -75 8
-8 720 31 755 42 10 3 10 10 -2 32 -30 58 -188 103 -301 86z"/>
<path d="M6542 6490 c-96 -43 -160 -118 -221 -259 l-33 -73 33 -66 c40 -81
129 -171 229 -230 40 -24 75 -41 78 -38 3 4 7 159 10 346 l5 340 -29 0 c-16 0
-48 -9 -72 -20z"/>
<path d="M7340 6475 c-207 -35 -395 -160 -524 -345 l-31 -45 4 -185 c1 -102 4
-187 6 -189 6 -5 197 47 272 75 173 63 325 165 409 274 l42 55 7 188 7 187
-58 -1 c-33 -1 -93 -7 -134 -14z"/>
<path d="M4920 6469 c-38 -16 -90 -59 -90 -75 0 -26 62 -72 105 -77 54 -8 146
-49 226 -103 l67 -44 113 0 c63 0 156 5 208 10 121 13 261 55 261 79 0 4 -35
22 -77 41 -43 18 -102 43 -132 56 -50 22 -66 24 -230 24 l-177 0 -29 30 c-15
16 -42 36 -59 43 -41 19 -154 29 -186 16z"/>
<path d="M9945 6470 c-66 -5 -183 -16 -260 -24 -77 -8 -205 -18 -285 -22
l-145 -6 -220 -74 c-219 -74 -484 -165 -517 -179 -37 -15 -15 -130 38 -202
l24 -31 172 4 c219 6 237 9 231 33 -7 28 47 56 157 80 108 24 648 94 687 89
47 -5 35 -24 -24 -37 -203 -45 -467 -132 -599 -196 -97 -48 -156 -89 -143 -98
11 -8 124 -50 194 -73 60 -19 109 -27 198 -31 l117 -6 0 -91 c0 -50 5 -98 10
-106 7 -12 38 -16 147 -18 146 -4 271 5 257 17 -5 5 -43 14 -84 21 -68 11
-235 64 -252 79 -4 3 35 39 85 79 112 88 144 111 527 377 228 157 332 236 338
254 3 10 0 12 -14 7 -40 -15 -239 -67 -281 -73 -69 -9 -55 17 60 105 106 82
134 108 124 118 -10 10 -416 13 -542 4z"/>
<path d="M4510 6428 c-23 -50 -26 -167 -7 -210 7 -14 36 -53 65 -86 59 -67
135 -172 237 -329 108 -166 238 -294 360 -355 103 -51 257 -94 404 -113 50 -7
53 -6 46 11 -37 92 -56 168 -58 228 l-2 70 46 29 c32 19 71 32 123 40 84 13
96 23 96 77 0 57 -26 78 -131 110 -123 37 -313 94 -419 127 -308 93 -303 91
-420 172 -91 62 -180 141 -215 191 -69 96 -95 104 -125 38z"/>
<path d="M8200 6380 c-30 -10 -154 -53 -275 -95 -121 -43 -245 -85 -275 -95
-46 -15 -56 -22 -58 -43 -5 -38 25 -42 190 -22 349 41 432 62 526 133 31 23
92 98 92 113 0 6 -115 30 -136 28 -5 0 -34 -9 -64 -19z"/>
<path d="M4184 6348 c-21 -10 -44 -47 -44 -71 0 -33 183 -136 244 -137 28 0
28 0 22 48 -11 74 -47 160 -71 166 -33 9 -128 5 -151 -6z"/>
<path d="M2595 6259 c-49 -11 -153 -33 -230 -50 -376 -80 -702 -164 -915 -236
-199 -67 -306 -119 -346 -165 -30 -37 -30 -43 2 -73 48 -45 297 -102 329 -75
26 21 17 37 -49 90 -80 63 -88 83 -50 120 57 52 77 60 190 70 105 9 1422 30
1887 30 125 0 227 4 227 8 0 11 -374 192 -465 226 -195 71 -415 92 -580 55z"/>
<path d="M5835 5974 c20 -37 84 -155 142 -263 152 -282 145 -271 196 -271 78
0 142 26 203 83 l56 52 -16 84 c-13 67 -25 96 -61 151 -52 79 -135 158 -209
201 -50 28 -54 29 -199 29 l-149 0 37 -66z"/>
<path d="M7825 6021 c-53 -24 -100 -74 -89 -94 5 -8 36 -47 69 -86 l60 -71
140 5 c483 17 473 16 423 62 -49 44 -282 142 -425 178 -121 30 -126 30 -178 6z"/>
<path d="M4103 5926 c-66 -16 -96 -36 -133 -88 -31 -42 -46 -86 -52 -147 -3
-37 -16 -27 261 -215 183 -123 182 -123 292 -142 208 -36 309 19 309 166 l0
65 -57 45 c-118 93 -377 271 -443 305 -40 21 -118 26 -177 11z"/>
<path d="M7290 5799 c-223 -149 -207 -142 -313 -140 -62 1 -106 -3 -137 -14
-52 -18 -110 -70 -110 -98 0 -32 50 -114 78 -126 33 -16 302 -28 302 -14 0 18
117 168 181 232 35 35 88 77 117 93 56 32 72 52 72 91 0 20 -37 68 -51 66 -2
0 -65 -41 -139 -90z"/>
<path d="M2705 5843 c-380 -15 -1046 -71 -1057 -87 -4 -6 -8 -23 -8 -37 0 -31
-2 -29 250 -124 290 -109 519 -186 728 -245 l114 -32 654 7 654 8 0 32 c0 29
-8 37 -93 92 -111 74 -226 175 -337 301 l-83 92 -376 -2 c-207 -1 -407 -3
-446 -5z"/>
<path d="M7569 5687 c-86 -57 -210 -177 -294 -284 -58 -74 -77 -91 -114 -103
-25 -8 -53 -26 -63 -40 -17 -23 -17 -32 -7 -78 6 -29 22 -66 36 -82 l25 -30
200 0 201 0 81 52 c371 238 386 248 386 268 0 47 -101 142 -292 273 l-96 66
-63 -42z"/>
<path d="M8880 5634 c-25 -2 -98 -9 -164 -14 -154 -13 -280 -45 -319 -80 -18
-15 -27 -32 -23 -38 5 -9 134 -12 491 -12 l485 0 6 27 c19 72 -81 110 -311
117 -66 2 -140 2 -165 0z"/>
<path d="M5691 5548 c-4 -13 -4 -59 1 -103 7 -64 13 -84 31 -97 12 -10 28 -23
35 -28 6 -6 12 -28 12 -49 0 -25 7 -44 19 -55 19 -17 21 -17 50 0 47 28 76 95
76 179 0 83 -15 109 -86 149 -62 34 -126 36 -138 4z"/>
<path d="M6543 5467 c-106 -54 -193 -118 -193 -142 0 -20 19 -23 209 -31 l173
-7 -8 44 c-7 44 -10 71 -13 122 -1 28 -32 67 -53 67 -7 0 -59 -24 -115 -53z"/>
<path d="M8770 5399 c-243 -16 -376 -30 -508 -54 -114 -20 -145 -30 -215 -69
-104 -56 -258 -159 -342 -228 -58 -48 -65 -57 -65 -90 0 -67 13 -70 266 -58
120 5 273 14 339 20 66 5 181 12 255 15 74 4 333 17 575 30 242 13 548 29 680
35 244 12 255 13 360 60 33 15 90 39 126 55 74 32 76 39 23 80 -94 72 -353
146 -696 200 -108 17 -566 19 -798 4z"/>
<path d="M5044 5293 c-4 -14 -2 -33 3 -42 9 -15 327 -204 456 -271 66 -35 97
-29 97 17 0 90 -121 211 -255 253 -22 7 -63 26 -91 41 -43 25 -62 29 -127 29
-75 0 -77 -1 -83 -27z"/>
<path d="M6075 5231 c-42 -10 -70 -30 -89 -62 -20 -34 -20 -53 0 -85 39 -58
123 -67 222 -24 46 21 50 34 32 102 -19 67 -75 91 -165 69z"/>
<path d="M2210 5212 c-19 -9 -82 -38 -139 -64 -142 -66 -455 -247 -428 -248 4
0 65 12 135 26 264 54 578 149 620 187 35 32 27 77 -18 99 -44 22 -123 22
-170 0z"/>
<path d="M4750 5213 c-65 -10 -107 -34 -128 -72 -12 -21 -22 -48 -22 -58 0
-19 -8 -20 -207 -19 -195 1 -348 -12 -435 -35 -107 -28 -429 -285 -612 -488
-96 -105 -84 -111 97 -49 78 27 198 69 267 93 69 24 222 77 340 118 118 42
306 107 416 145 111 39 211 75 223 81 17 10 21 21 21 60 0 70 13 77 100 57 75
-17 219 -83 370 -171 82 -47 102 -55 148 -55 51 0 52 1 52 29 0 34 -73 106
-215 211 -174 129 -190 137 -290 149 -49 6 -92 10 -95 10 -3 -1 -16 -4 -30 -6z"/>
<path d="M2860 5180 c0 -17 74 -82 122 -106 161 -82 467 -85 653 -7 71 30 141
76 155 103 11 20 5 20 -460 20 -291 0 -470 -4 -470 -10z"/>
<path d="M6400 5121 c-20 -21 -57 -78 -81 -126 l-44 -87 -50 6 c-27 3 -77 17
-110 31 -33 13 -75 25 -93 25 -69 0 -125 -96 -166 -287 -39 -176 -47 -269 -30
-350 18 -87 51 -187 77 -232 25 -44 87 -111 103 -111 30 0 186 191 299 365 32
50 68 106 81 125 29 45 137 238 202 362 88 166 80 228 -39 287 -82 41 -104 40
-149 -8z"/>
<path d="M6720 5104 c1 -27 5 -80 10 -119 l9 -70 -109 -210 c-60 -116 -120
-230 -134 -255 -37 -65 -35 -70 34 -70 l59 0 32 48 c18 26 70 99 117 163 l84
117 54 4 c109 9 193 107 201 236 5 84 -15 125 -82 167 -45 28 -56 30 -162 34
l-113 3 0 -48z"/>
<path d="M2498 5035 c-4 -5 -218 -74 -383 -125 -308 -95 -363 -116 -523 -205
-89 -49 -162 -93 -162 -96 0 -4 37 -21 83 -38 45 -16 125 -47 177 -67 l95 -37
270 -5 270 -4 350 212 c193 117 352 215 355 217 2 2 -9 16 -25 30 -17 14 -42
37 -56 50 -23 22 -43 26 -169 39 -78 8 -170 18 -204 24 -71 12 -71 12 -78 5z"/>
<path d="M7281 4909 c-46 -4 -90 -10 -97 -13 -10 -4 -14 -24 -14 -66 0 -51 4
-65 25 -85 13 -14 29 -25 36 -25 6 0 52 -18 103 -41 l91 -41 185 -5 c211 -6
204 -16 70 92 -120 97 -243 175 -295 187 -11 3 -58 1 -104 -3z"/>
<path d="M4710 4829 c-14 -4 -74 -22 -135 -39 -60 -18 -137 -40 -170 -51 -33
-10 -141 -44 -240 -74 -446 -139 -724 -261 -834 -367 -22 -22 -41 -47 -41 -54
0 -12 114 -14 723 -14 775 0 757 -1 786 52 15 26 13 32 -42 140 -31 62 -57
119 -57 125 0 7 19 21 43 31 44 19 288 82 319 82 24 0 33 20 16 36 -14 14
-152 73 -273 116 -48 18 -78 23 -95 17z"/>
<path d="M8605 4829 c-299 -14 -525 -38 -618 -66 -18 -5 -18 -6 0 -26 11 -12
27 -34 36 -49 37 -60 162 -87 267 -58 19 5 91 18 160 29 320 52 429 71 480 87
56 17 140 67 140 84 0 11 -226 11 -465 -1z"/>
<path d="M9688 4829 c-45 -13 -64 -34 -73 -79 l-6 -35 133 -34 c374 -93 602
-185 917 -366 43 -25 83 -45 89 -45 27 0 11 48 -25 77 -186 149 -397 290 -598
400 -157 86 -159 87 -285 89 -63 2 -132 -2 -152 -7z"/>
<path d="M5461 4733 l-134 -4 -105 -83 c-102 -82 -106 -84 -191 -100 -197 -38
-191 -36 -191 -56 0 -21 6 -24 119 -44 113 -21 206 -20 257 3 22 10 65 40 94
66 30 26 78 59 107 72 49 23 57 23 128 14 121 -17 132 -16 137 17 8 52 -10 92
-47 108 -19 8 -36 13 -37 12 -2 -1 -63 -4 -137 -5z"/>
<path d="M9258 4725 c-74 -20 -136 -83 -138 -139 0 -10 38 -91 84 -180 46 -88
87 -175 90 -192 l7 -30 -83 -11 c-157 -21 -171 -43 -88 -126 l50 -50 332 6
c182 4 562 7 845 7 487 0 513 1 513 18 0 13 -67 52 -267 154 -148 75 -313 156
-368 181 -55 25 -134 60 -175 80 -115 53 -344 153 -512 223 -198 82 -203 83
-290 59z"/>
<path d="M2825 4576 l-150 -146 110 0 110 0 125 80 c69 44 141 89 161 99 28
16 38 28 43 57 4 20 6 38 4 40 -2 2 -60 6 -129 9 l-124 6 -150 -145z"/>
<path d="M8710 4616 c-137 -41 -202 -80 -238 -145 l-22 -39 42 -25 c160 -92
325 -136 514 -137 88 0 91 1 102 25 7 14 12 31 12 36 0 18 -117 174 -159 212
-81 73 -166 98 -251 73z"/>
<path d="M6888 4540 c-24 -18 -102 -127 -128 -179 -11 -21 -8 -27 21 -57 40
-42 64 -43 117 -4 43 31 111 115 112 138 0 23 -49 109 -65 116 -25 9 -30 8
-57 -14z"/>
<path d="M7645 4516 c-5 -2 -47 -12 -92 -21 -67 -15 -83 -22 -92 -42 -26 -56
-6 -95 104 -195 l77 -72 97 -12 c154 -20 269 -43 379 -75 57 -17 107 -28 110
-25 12 13 -21 146 -50 196 -41 72 -194 225 -233 233 -35 8 -285 19 -300 13z"/>
<path d="M7091 4463 c-26 -55 -72 -195 -95 -286 -41 -160 -42 -146 21 -226
l56 -71 51 0 c28 0 115 3 193 7 l142 6 11 30 c5 17 10 51 10 77 0 46 -1 48
-52 81 -31 20 -56 44 -60 59 -55 194 -81 240 -171 306 -69 51 -89 54 -106 17z"/>
<path d="M5591 4459 c-18 -11 -38 -33 -44 -49 -12 -31 -37 -40 -117 -40 -61 0
-113 -19 -204 -74 -71 -43 -134 -68 -256 -100 -51 -13 -27 -14 318 -15 l372
-1 0 150 c0 168 -1 170 -69 129z"/>
<path d="M2476 4304 c-14 -21 -24 -40 -22 -42 10 -10 169 12 182 25 23 24 17
43 -15 43 -15 0 -49 3 -73 6 -44 6 -46 5 -72 -32z"/>
<path d="M8374 4306 l-28 -23 34 -79 c68 -157 204 -328 415 -525 482 -449 895
-761 1054 -794 l33 -7 -7 43 c-16 94 -66 198 -141 297 -41 53 -123 162 -182
242 -59 79 -129 166 -155 193 -63 63 -158 124 -225 143 -52 15 -56 15 -81 -3
-35 -26 -40 -69 -10 -78 13 -4 52 -26 88 -50 156 -99 305 -240 439 -414 60
-77 70 -96 62 -112 -13 -23 -40 -38 -60 -31 -29 9 -237 192 -326 284 -49 52
-116 129 -149 173 -122 163 -596 724 -629 744 -45 28 -98 27 -132 -3z"/>
<path d="M6441 4239 c-92 -27 -216 -145 -269 -257 -42 -87 -44 -129 -11 -193
25 -49 113 -146 140 -154 24 -8 69 19 184 111 146 117 148 122 179 309 6 40
-12 126 -33 149 -36 42 -115 56 -190 35z"/>
<path d="M3150 3992 c-302 -153 -541 -323 -760 -542 -148 -148 -170 -179 -170
-233 0 -71 14 -97 50 -97 42 0 48 4 218 132 235 178 470 357 562 428 47 36 95
72 107 80 22 15 292 218 306 230 13 11 -88 60 -134 65 -39 5 -58 -2 -179 -63z"/>
<path d="M7820 4034 c-19 -9 -45 -19 -57 -23 -22 -6 -22 -7 22 -95 52 -102
131 -223 209 -317 49 -60 67 -73 193 -139 265 -139 453 -238 588 -310 39 -20
133 -70 210 -110 256 -134 277 -146 330 -199 58 -58 100 -127 110 -183 l7 -38
205 0 c185 0 207 2 243 20 22 11 40 27 40 35 0 16 -122 110 -630 484 -270 199
-785 551 -1037 709 -37 23 -104 65 -148 92 -43 28 -87 50 -96 50 -9 0 -36 9
-60 20 -53 24 -82 24 -129 4z"/>
<path d="M5168 3873 c-44 -93 -111 -238 -149 -323 -39 -85 -74 -164 -79 -175
-150 -335 -342 -867 -409 -1133 -38 -150 -81 -365 -81 -405 0 -24 25 19 106
178 109 215 127 251 254 485 119 220 286 499 413 690 93 138 281 396 355 485
23 27 42 56 42 65 0 25 -75 152 -121 204 -54 61 -125 96 -197 96 l-53 0 -81
-167z"/>
<path d="M3790 3957 c-400 -177 -847 -502 -1479 -1076 -46 -42 -97 -89 -115
-104 -30 -28 -31 -29 -11 -43 28 -21 79 -12 265 48 85 27 216 68 290 90 74 22
194 60 266 84 l130 44 212 0 c117 0 212 -3 212 -6 0 -3 -30 -38 -66 -77 -153
-168 -244 -329 -349 -621 -19 -55 -34 -101 -32 -102 2 -2 30 36 62 84 211 313
470 608 735 835 58 50 106 94 108 97 3 8 -64 16 -225 26 -66 4 -103 11 -103
18 0 53 139 186 327 314 175 119 246 186 269 254 14 44 14 52 -1 103 l-16 56
-52 -2 c-29 -1 -119 1 -202 5 l-150 6 -75 -33z"/>
<path d="M4952 3963 c-36 -17 -109 -96 -148 -159 -16 -26 -23 -54 -24 -86 0
-26 -11 -156 -25 -290 -14 -134 -25 -244 -25 -245 0 -1 40 75 88 170 48 95
123 231 165 303 72 122 77 134 77 188 0 62 -19 109 -49 126 -24 12 -19 13 -59
-7z"/>
<path d="M4672 3944 c-86 -23 -156 -61 -208 -113 -27 -27 -78 -70 -114 -97
-75 -54 -266 -246 -293 -293 l-19 -32 209 3 208 3 53 29 c99 55 162 146 202
287 22 81 38 229 24 228 -5 0 -33 -7 -62 -15z"/>
<path d="M5789 3937 c-19 -12 -34 -29 -33 -37 2 -8 5 -36 9 -61 6 -49 49 -106
114 -154 48 -34 109 -34 141 0 22 24 23 28 12 70 -7 25 -22 60 -33 78 -26 39
-134 127 -157 127 -9 0 -33 -10 -53 -23z"/>
<path d="M6760 3843 c0 -4 18 -60 41 -126 51 -147 57 -205 34 -331 -10 -57
-15 -113 -11 -137 13 -84 164 -269 403 -496 92 -87 224 -212 293 -278 115
-109 262 -216 277 -202 24 24 -41 148 -222 422 -133 201 -136 207 -169 347
-47 197 -112 370 -188 502 -50 85 -162 204 -225 238 -72 40 -233 82 -233 61z"/>
<path d="M7693 3818 c-15 -19 -31 -75 -43 -150 -12 -80 7 -237 44 -353 26 -81
5 -50 497 -736 179 -250 331 -464 337 -476 6 -11 10 -52 9 -90 -2 -80 10 -103
53 -103 23 0 30 6 39 33 32 100 21 246 -24 319 -14 24 -40 66 -57 93 -95 154
-138 233 -378 700 -154 300 -239 449 -373 653 -44 67 -83 122 -87 122 -4 0
-12 -6 -17 -12z"/>
<path d="M7385 3628 c-30 -101 -12 -236 50 -373 52 -117 278 -562 357 -705 89
-159 247 -419 317 -519 36 -51 55 -68 98 -87 89 -40 143 -30 169 31 19 45 18
89 -2 106 -28 23 -158 180 -231 279 -99 134 -197 285 -282 430 -41 69 -84 142
-97 162 -13 21 -24 40 -24 43 0 3 -10 22 -23 43 -79 126 -116 209 -126 287
-13 95 -45 195 -79 250 -24 39 -90 105 -104 105 -4 0 -14 -23 -23 -52z"/>
<path d="M5986 3570 c-31 -10 -72 -44 -87 -73 -8 -13 -3 -32 15 -73 l25 -55
127 3 128 3 7 28 c4 15 11 56 14 91 l7 64 -64 11 c-74 13 -131 13 -172 1z"/>
<path d="M5620 3442 c-101 -49 -285 -254 -368 -412 -79 -150 -151 -288 -212
-405 -34 -66 -77 -147 -95 -180 -84 -155 -186 -357 -183 -360 2 -2 33 21 68
52 36 30 92 78 125 105 384 322 665 627 756 819 55 115 71 221 48 300 -11 36
-63 110 -77 108 -4 0 -32 -12 -62 -27z"/>
<path d="M4433 3300 c-35 -21 -86 -88 -237 -309 -125 -183 -265 -368 -375
-496 -181 -211 -487 -509 -699 -679 -90 -72 -101 -91 -74 -118 23 -23 8 -29
221 90 339 189 596 420 1107 997 l71 80 36 146 c41 162 49 266 21 293 -20 21
-32 20 -71 -4z"/>
<path d="M2160 3010 c-29 -9 -188 -104 -209 -125 -13 -12 -13 -18 -1 -41 17
-30 47 -44 95 -44 23 0 55 15 107 49 132 89 157 135 86 160 -35 12 -43 12 -78
1z"/>
<path d="M8736 2988 c-3 -13 -6 -35 -6 -50 0 -37 38 -55 153 -74 76 -12 96
-19 115 -40 24 -27 176 -89 198 -80 8 3 -1 18 -27 44 -21 22 -39 49 -39 59 0
17 -9 21 -65 26 -60 6 -136 34 -150 57 -6 10 -151 80 -165 80 -4 0 -10 -10
-14 -22z"/>
<path d="M3870 2863 c-180 -127 -302 -242 -374 -353 -70 -106 -189 -261 -278
-361 -32 -36 -58 -71 -58 -78 0 -6 11 -16 25 -23 23 -10 38 2 302 259 341 332
377 370 436 460 48 71 48 72 33 107 -8 20 -16 36 -18 36 -2 -1 -32 -21 -68
-47z"/>
<path d="M8417 2904 c-8 -8 66 -193 141 -354 57 -123 167 -305 237 -391 11
-14 76 -58 145 -98 69 -41 158 -93 197 -117 l73 -42 20 45 c11 25 20 48 20 51
0 7 -62 97 -277 399 -96 137 -180 259 -185 273 -69 180 -139 240 -284 240 -44
0 -83 -3 -87 -6z"/>
<path d="M9177 2469 c-24 -13 -35 -24 -30 -32 66 -107 182 -247 205 -247 14 0
8 62 -10 116 -21 60 -99 184 -116 184 -6 -1 -28 -10 -49 -21z"/>
<path d="M4126 2390 c-21 -33 -78 -98 -131 -147 -52 -48 -95 -91 -95 -95 0
-15 56 -8 80 9 14 9 66 52 116 95 78 66 93 84 104 122 26 95 -19 105 -74 16z"/>
</g>
</svg>
